<?xml version="1.0" standalone="no"?>
<!DOCTYPE svg PUBLIC "-//W3C//DTD SVG 20010904//EN"
 "http://www.w3.org/TR/2001/REC-SVG-20010904/DTD/svg10.dtd">
<svg version="1.0" xmlns="http://www.w3.org/2000/svg"
 width="475.000000pt" height="348.000000pt" viewBox="0 0 475.000000 348.000000"
 preserveAspectRatio="xMidYMid meet">

<g transform="translate(0.000000,348.000000) scale(0.100000,-0.100000)"
fill="#000000" stroke="none">
<path d="M470 3409 c-146 -25 -279 -132 -341 -275 l-34 -79 -3 -1280 c-2 -955
0 -1294 9 -1335 40 -188 179 -332 357 -369 37 -8 597 -11 1915 -11 2029 0
1923 -3 2040 56 111 57 212 197 237 329 8 43 10 417 8 1335 l-3 1275 -28 65
c-57 133 -157 229 -285 272 l-67 23 -1875 1 c-1094 1 -1898 -2 -1930 -7z
m3810 -230 c58 -26 106 -72 136 -131 l24 -47 0 -1258 0 -1258 -24 -50 c-13
-27 -41 -67 -62 -87 -78 -74 94 -68 -1981 -68 -1786 0 -1870 1 -1908 19 -61
28 -105 70 -131 126 l-24 50 0 1263 0 1263 25 48 c28 56 104 127 149 140 18 5
823 9 1891 10 1850 1 1860 0 1905 -20z"/>
<path d="M1562 2689 l-22 -8 0 -939 c0 -716 3 -941 12 -950 16 -16 180 -16
196 0 18 18 17 1887 0 1893 -28 8 -166 11 -186 4z"/>
<path d="M3812 2692 l-92 -3 2 -952 3 -952 100 0 100 0 3 946 c2 750 -1 948
-10 955 -7 5 -55 8 -106 6z"/>
<path d="M820 2583 c-4 -767 1 -1788 8 -1795 5 -5 51 -7 103 -6 l94 3 3 953 2
952 -105 0 -105 0 0 -107z"/>
<path d="M2270 2688 c0 -2 -2 -286 -5 -633 -3 -346 -2 -774 3 -950 l7 -320 91
-3 c68 -2 94 1 103 11 8 11 10 254 9 953 l-3 939 -102 3 c-57 1 -103 1 -103 0z"/>
<path d="M2997 2684 c-4 -4 -7 -431 -7 -950 0 -850 2 -942 16 -948 32 -12 181
-7 193 8 8 10 10 267 9 952 l-3 939 -101 3 c-55 1 -103 0 -107 -4z"/>
</g>
</svg>
