<svg width="22" height="20" viewBox="0 0 22 20" fill="none" xmlns="http://www.w3.org/2000/svg">
<path d="M1 1H2C2.53043 1 3.03914 1.21071 3.41421 1.58579C3.78929 1.96086 4 2.46957 4 3V13C4 13.5304 4.21071 14.0391 4.58579 14.4142C4.96086 14.7893 5.46957 15 6 15H21M8 7C8 6.20435 8.31607 5.44129 8.87868 4.87868C9.44129 4.31607 10.2044 4 11 4H15C15.7956 4 16.5587 4.31607 17.1213 4.87868C17.6839 5.44129 18 6.20435 18 7V9C18 9.79565 17.6839 10.5587 17.1213 11.1213C16.5587 11.6839 15.7956 12 15 12H11C10.2044 12 9.44129 11.6839 8.87868 11.1213C8.31607 10.5587 8 9.79565 8 9V7ZM6 17C6 17.5304 6.21071 18.0391 6.58579 18.4142C6.96086 18.7893 7.46957 19 8 19C8.53043 19 9.03914 18.7893 9.41421 18.4142C9.78929 18.0391 10 17.5304 10 17C10 16.4696 9.78929 15.9609 9.41421 15.5858C9.03914 15.2107 8.53043 15 8 15C7.46957 15 6.96086 15.2107 6.58579 15.5858C6.21071 15.9609 6 16.4696 6 17ZM15 17C15 17.5304 15.2107 18.0391 15.5858 18.4142C15.9609 18.7893 16.4696 19 17 19C17.5304 19 18.0391 18.7893 18.4142 18.4142C18.7893 18.0391 19 17.5304 19 17C19 16.4696 18.7893 15.9609 18.4142 15.5858C18.0391 15.2107 17.5304 15 17 15C16.4696 15 15.9609 15.2107 15.5858 15.5858C15.2107 15.9609 15 16.4696 15 17Z" stroke="#737B8B" stroke-width="2" stroke-linecap="round" stroke-linejoin="round"/>
</svg>
