<svg width="20" height="20" viewBox="0 0 20 20" fill="none" xmlns="http://www.w3.org/2000/svg">
<path d="M9 4C9 4.79565 9.52678 5.55871 10.4645 6.12132C11.4021 6.68393 12.6739 7 14 7C15.3261 7 16.5979 6.68393 17.5355 6.12132C18.4732 5.55871 19 4.79565 19 4M9 4C9 3.20435 9.52678 2.44129 10.4645 1.87868C11.4021 1.31607 12.6739 1 14 1C15.3261 1 16.5979 1.31607 17.5355 1.87868C18.4732 2.44129 19 3.20435 19 4M9 4V8M19 4V8M9 8C9 9.657 11.239 11 14 11C16.761 11 19 9.657 19 8M9 8V12M19 8V12M9 12C9 13.657 11.239 15 14 15C16.761 15 19 13.657 19 12M9 12V16C9 17.657 11.239 19 14 19C16.761 19 19 17.657 19 16V12M5 7H2.5C2.10218 7 1.72064 7.15804 1.43934 7.43934C1.15804 7.72064 1 8.10218 1 8.5C1 8.89782 1.15804 9.27936 1.43934 9.56066C1.72064 9.84196 2.10218 10 2.5 10H3.5C3.89782 10 4.27936 10.158 4.56066 10.4393C4.84196 10.7206 5 11.1022 5 11.5C5 11.8978 4.84196 12.2794 4.56066 12.5607C4.27936 12.842 3.89782 13 3.5 13H1M3 13V14M3 6V7" stroke="#737B8B" stroke-width="2" stroke-linecap="round" stroke-linejoin="round"/>
</svg>
