<svg width="15" height="19" viewBox="0 0 15 19" fill="none" xmlns="http://www.w3.org/2000/svg">
<path d="M9.35714 1V4.77778C9.35714 5.02826 9.45497 5.26848 9.62912 5.4456C9.80326 5.62272 10.0394 5.72222 10.2857 5.72222H14M9.35714 1H2.85714C2.3646 1 1.89223 1.19901 1.54394 1.55324C1.19566 1.90748 1 2.38792 1 2.88889V16.1111C1 16.6121 1.19566 17.0925 1.54394 17.4468C1.89223 17.801 2.3646 18 2.85714 18H12.1429C12.6354 18 13.1078 17.801 13.4561 17.4468C13.8043 17.0925 14 16.6121 14 16.1111V5.72222M9.35714 1L14 5.72222M9.35714 8.55556H7.03571C6.66631 8.55556 6.31203 8.70481 6.05082 8.97049C5.7896 9.23616 5.64286 9.5965 5.64286 9.97222C5.64286 10.3479 5.7896 10.7083 6.05082 10.974C6.31203 11.2396 6.66631 11.3889 7.03571 11.3889H7.96429C8.33369 11.3889 8.68797 11.5381 8.94918 11.8038C9.2104 12.0695 9.35714 12.4298 9.35714 12.8056C9.35714 13.1813 9.2104 13.5416 8.94918 13.8073C8.68797 14.073 8.33369 14.2222 7.96429 14.2222H5.64286M7.5 14.2222V15.1667M7.5 7.61111V8.55556" stroke="#737B8B" stroke-width="2" stroke-linecap="round" stroke-linejoin="round"/>
</svg>
