<svg width="14" height="17" viewBox="0 0 14 17" fill="none" xmlns="http://www.w3.org/2000/svg">
<path d="M1 15.0327V13.5427C1 12.7523 1.31607 11.9943 1.87867 11.4354C2.44127 10.8765 3.20432 10.5625 3.99996 10.5625H5.12495M11.65 14.4367L13 15.7777M2.49998 4.60231C2.49998 5.39268 2.81605 6.15069 3.37865 6.70957C3.94125 7.26845 4.70431 7.58242 5.49995 7.58242C6.29559 7.58242 7.05864 7.26845 7.62124 6.70957C8.18384 6.15069 8.49991 5.39268 8.49991 4.60231C8.49991 3.81193 8.18384 3.05393 7.62124 2.49505C7.05864 1.93617 6.29559 1.62219 5.49995 1.62219C4.70431 1.62219 3.94125 1.93617 3.37865 2.49505C2.81605 3.05393 2.49998 3.81193 2.49998 4.60231ZM7.74992 12.7976C7.74992 13.3904 7.98697 13.9589 8.40892 14.3781C8.83087 14.7972 9.40316 15.0327 9.99989 15.0327C10.5966 15.0327 11.1689 14.7972 11.5909 14.3781C12.0128 13.9589 12.2499 13.3904 12.2499 12.7976C12.2499 12.2048 12.0128 11.6363 11.5909 11.2172C11.1689 10.798 10.5966 10.5625 9.99989 10.5625C9.40316 10.5625 8.83087 10.798 8.40892 11.2172C7.98697 11.6363 7.74992 12.2048 7.74992 12.7976Z" stroke="#3A3A3A" stroke-width="2" stroke-linecap="round" stroke-linejoin="round"/>
</svg>
