<svg width="46" height="46" viewBox="0 0 46 46" fill="none" xmlns="http://www.w3.org/2000/svg">
<path d="M19.25 28.5V29.75C19.25 30.7446 19.6451 31.6984 20.3483 32.4017C21.0516 33.1049 22.0054 33.5 23 33.5C23.9946 33.5 24.9484 33.1049 25.6517 32.4017C26.3549 31.6984 26.75 30.7446 26.75 29.75V28.5M20.5 13.5C20.5 12.837 20.7634 12.2011 21.2322 11.7322C21.7011 11.2634 22.337 11 23 11C23.663 11 24.2989 11.2634 24.7678 11.7322C25.2366 12.2011 25.5 12.837 25.5 13.5C26.9355 14.1788 28.1593 15.2354 29.0401 16.5566C29.9209 17.8778 30.4255 19.4138 30.5 21V24.75C30.5941 25.5271 30.8693 26.2713 31.3035 26.9227C31.7377 27.574 32.3188 28.1143 33 28.5H13C13.6812 28.1143 14.2623 27.574 14.6965 26.9227C15.1307 26.2713 15.4059 25.5271 15.5 24.75V21C15.5745 19.4138 16.0791 17.8778 16.9599 16.5566C17.8407 15.2354 19.0645 14.1788 20.5 13.5Z" stroke="white" stroke-width="2" stroke-linecap="round" stroke-linejoin="round"/>
<circle cx="31" cy="15" r="4" fill="#09CF5C"/>
</svg>
