<svg width="18" height="19" viewBox="0 0 18 19" fill="none" xmlns="http://www.w3.org/2000/svg">
<path d="M6.33332 14.2222V15.1667C6.33332 15.9181 6.61427 16.6388 7.11436 17.1701C7.61446 17.7015 8.29273 18 8.99998 18C9.70722 18 10.3855 17.7015 10.8856 17.1701C11.3857 16.6388 11.6666 15.9181 11.6666 15.1667V14.2222M17 4.51994C16.4169 3.17246 15.5703 1.97249 14.5165 1M1 4.51994C1.58253 3.17264 2.42857 1.97268 3.48177 1M7.2222 2.88889C7.2222 2.38792 7.4095 1.90748 7.7429 1.55324C8.0763 1.19901 8.52848 1 8.99998 1C9.47147 1 9.92365 1.19901 10.257 1.55324C10.5904 1.90748 10.7777 2.38792 10.7777 2.88889C11.7986 3.40175 12.6688 4.20009 13.2951 5.19834C13.9215 6.19659 14.2804 7.35712 14.3333 8.55556V11.3889C14.4002 11.9761 14.5959 12.5383 14.9047 13.0305C15.2135 13.5226 15.6267 13.9308 16.1111 14.2222H1.88889C2.37327 13.9308 2.78649 13.5226 3.09527 13.0305C3.40405 12.5383 3.59977 11.9761 3.66666 11.3889V8.55556C3.7196 7.35712 4.07848 6.19659 4.70483 5.19834C5.33119 4.20009 6.2014 3.40175 7.2222 2.88889Z" stroke="#737B8B" stroke-width="2" stroke-linecap="round" stroke-linejoin="round"/>
</svg>
