<?xml version="1.0" standalone="no"?>
<!DOCTYPE svg PUBLIC "-//W3C//DTD SVG 20010904//EN"
 "http://www.w3.org/TR/2001/REC-SVG-20010904/DTD/svg10.dtd">
<svg version="1.0" xmlns="http://www.w3.org/2000/svg"
 width="1024.000000pt" height="1024.000000pt" viewBox="0 0 1024.000000 1024.000000"
 preserveAspectRatio="xMidYMid meet">

<g transform="translate(0.000000,1024.000000) scale(0.100000,-0.100000)"
fill="#000000" stroke="none">
<path d="M4892 10085 c-225 -51 -409 -242 -458 -476 -23 -111 -15 -786 10
-874 38 -130 148 -288 242 -345 23 -15 43 -42 64 -85 33 -69 77 -112 147 -145
24 -11 43 -23 43 -28 -1 -4 -132 -75 -293 -158 -417 -216 -1176 -611 -2115
-1100 l-813 -424 -110 0 c-359 0 -573 -79 -762 -280 -89 -94 -149 -204 -172
-315 -13 -60 -15 -352 -15 -2061 0 -1348 3 -2009 11 -2050 23 -131 78 -262
154 -369 93 -129 218 -216 415 -287 l65 -23 2255 -3 c2057 -2 2262 -1 2330 14
64 14 856 327 1980 784 124 50 232 91 240 92 8 0 233 -103 500 -229 267 -127
553 -262 636 -302 82 -39 161 -71 175 -71 36 0 109 40 133 73 l21 28 3 2313 2
2313 -22 33 c-13 18 -35 42 -49 52 -53 40 -80 35 -517 -81 -227 -61 -417 -111
-422 -111 -5 0 -125 75 -267 166 -142 92 -382 246 -533 344 -151 97 -360 232
-465 300 -104 68 -279 179 -388 247 -536 335 -1713 1087 -1724 1100 -10 13 -6
20 30 43 119 75 167 220 120 354 -23 63 -96 144 -159 176 -94 47 -223 37 -306
-23 l-42 -30 -47 51 c-77 84 -79 95 -79 493 0 324 1 352 20 402 38 102 117
170 237 203 51 14 71 15 117 6 129 -26 225 -101 267 -211 19 -48 23 -83 28
-239 l6 -184 37 -33 c20 -19 49 -37 63 -41 38 -9 91 4 124 32 48 40 54 76 48
278 -4 148 -9 194 -27 251 -60 192 -223 357 -410 416 -85 27 -242 34 -328 14z
m242 -2680 c69 -258 152 -575 185 -702 l59 -233 -981 0 c-540 0 -1256 -3
-1592 -6 l-610 -6 140 75 c77 40 394 205 705 365 311 160 878 453 1260 651
594 308 696 358 702 343 4 -9 64 -228 132 -487z m821 -23 c226 -146 516 -331
645 -412 363 -227 1062 -671 1398 -888 l303 -196 -50 -13 c-42 -10 -56 -10
-85 2 -19 8 -76 24 -128 35 -96 22 -1176 247 -1563 326 l-220 45 -80 53 c-165
109 -222 127 -422 133 l-153 5 -11 42 c-6 22 -24 88 -39 146 -16 58 -83 314
-150 570 -67 256 -130 496 -141 535 -10 38 -19 73 -19 77 0 3 69 -39 153 -94
83 -56 337 -221 562 -366z m-114 -1292 c115 -36 215 -133 261 -255 l23 -60 0
-2030 0 -2030 -27 -57 c-33 -71 -102 -146 -166 -181 -112 -61 40 -57 -2358
-57 -2123 0 -2194 1 -2253 19 -122 38 -218 122 -275 241 l-31 65 0 2016 0
2015 38 76 c60 122 165 204 307 242 47 13 357 15 2236 15 2149 1 2183 1 2245
-19z m1405 -330 c422 -88 770 -163 773 -166 3 -3 7 -745 9 -1649 2 -1563 1
-1643 -15 -1650 -46 -17 -1490 -543 -1508 -549 -20 -6 -20 -2 -17 1997 2 1901
1 2064 -24 2155 -4 12 -2 22 4 22 6 0 356 -72 778 -160z m2064 -2011 c0 -1677
-3 -2100 -12 -2096 -7 3 -155 70 -328 149 -173 79 -395 179 -492 223 -158 70
-176 80 -167 97 6 12 10 638 9 1748 l0 1730 27 6 c15 4 230 60 478 125 247 64
458 117 468 118 16 1 17 -105 17 -2100z"/>
<path d="M1790 3730 l0 -1790 145 0 145 0 0 1790 0 1790 -145 0 -145 0 0
-1790z"/>
<path d="M2750 3730 l0 -1790 145 0 145 0 0 1790 0 1790 -145 0 -145 0 0
-1790z"/>
<path d="M3700 3730 l0 -1790 150 0 150 0 0 1790 0 1790 -150 0 -150 0 0
-1790z"/>
<path d="M4700 3730 l0 -1790 150 0 150 0 0 1790 0 1790 -150 0 -150 0 0
-1790z"/>
</g>
</svg>
