<svg width="21" height="19" viewBox="0 0 21 19" fill="none" xmlns="http://www.w3.org/2000/svg">
<path d="M1 10.775L5.75 13.325V18M1 10.775L5.75 8.225L10.5 10.775M1 10.775V15.45L5.75 18M10.5 10.775V15.45M10.5 10.775L15.25 13.325M10.5 10.775L15.25 8.225M10.5 10.775V6.1M10.5 15.45L5.75 18M10.5 15.45L15.25 18M5.75 13.3633L10.5 10.7878M15.25 13.325V18M15.25 13.325L20 10.775M15.25 8.225L20 10.775M15.25 8.225V3.55M20 10.775V15.45L15.25 18M10.5 6.1L5.75 3.55L10.5 1L15.25 3.55M10.5 6.1L15.25 3.55M5.75 3.5755V8.21225" stroke="#737B8B" stroke-width="2" stroke-linecap="round" stroke-linejoin="round"/>
</svg>
