<svg width="15" height="15" viewBox="0 0 15 15" fill="none" xmlns="http://www.w3.org/2000/svg">
<path d="M14 6.68598C13.8013 5.25348 13.138 3.92617 12.1123 2.90851C11.0865 1.89086 9.7553 1.2393 8.32361 1.05422C6.89191 0.869142 5.43919 1.1608 4.18923 1.88427C2.93926 2.60774 1.96139 3.72289 1.40625 5.05794M1 1.80186V5.05794H4.25M1 8.31402C1.1987 9.74652 1.86201 11.0738 2.88773 12.0915C3.91346 13.1091 5.2447 13.7607 6.67639 13.9458C8.10809 14.1309 9.56081 13.8392 10.8108 13.1157C12.0607 12.3923 13.0386 11.2771 13.5938 9.94206M14 13.1981V9.94206H10.75" stroke="white" stroke-width="2" stroke-linecap="round" stroke-linejoin="round"/>
</svg>
