<svg width="21" height="21" viewBox="0 0 21 21" fill="none" xmlns="http://www.w3.org/2000/svg">
<path d="M1 11.6431L5.75 14.4196V19.5097M1 11.6431L5.75 8.86664L10.5 11.6431M1 11.6431V16.7333L5.75 19.5097M10.5 11.6431V16.7333M10.5 11.6431L15.25 14.4196M10.5 11.6431L15.25 8.86664M10.5 11.6431V6.55292M10.5 16.7333L5.75 19.5097M10.5 16.7333L15.25 19.5097M5.75 14.4612L10.5 11.657M15.25 14.4196V19.5097M15.25 14.4196L20 11.6431M15.25 8.86664L20 11.6431M15.25 8.86664V3.77646M20 11.6431V16.7333L15.25 19.5097M10.5 6.55292L5.75 3.77646L10.5 1L15.25 3.77646M10.5 6.55292L15.25 3.77646M5.75 3.80423V8.85276" stroke="#737B8B" stroke-width="2" stroke-linecap="round" stroke-linejoin="round"/>
</svg>
