<svg width="18" height="21" viewBox="0 0 18 21" fill="none" xmlns="http://www.w3.org/2000/svg">
<path d="M1 20V17.8889C1 16.7691 1.44484 15.6951 2.23666 14.9033C3.02848 14.1115 4.10242 13.6667 5.22222 13.6667H9.44444M10.5 17.8889L12.6111 20L16.8333 15.7778M3.11111 5.22222C3.11111 6.34203 3.55595 7.41596 4.34777 8.20778C5.13959 8.9996 6.21353 9.44444 7.33333 9.44444C8.45314 9.44444 9.52708 8.9996 10.3189 8.20778C11.1107 7.41596 11.5556 6.34203 11.5556 5.22222C11.5556 4.10242 11.1107 3.02848 10.3189 2.23666C9.52708 1.44484 8.45314 1 7.33333 1C6.21353 1 5.13959 1.44484 4.34777 2.23666C3.55595 3.02848 3.11111 4.10242 3.11111 5.22222Z" stroke="#737B8B" stroke-width="2" stroke-linecap="round" stroke-linejoin="round"/>
</svg>
