<svg width="19" height="18" viewBox="0 0 19 18" fill="none" xmlns="http://www.w3.org/2000/svg">
<path fill-rule="evenodd" clip-rule="evenodd" d="M3.29124 1.31802C4.18204 0.474105 5.39022 0 6.64999 0C7.90977 0 9.11795 0.474105 10.0087 1.31802C10.8995 2.16193 11.4 3.30653 11.4 4.5C11.4 5.69347 10.8995 6.83807 10.0087 7.68198C9.11795 8.52589 7.90977 9 6.64999 9C5.39022 9 4.18204 8.52589 3.29124 7.68198C2.40044 6.83807 1.9 5.69347 1.9 4.5C1.9 3.30653 2.40044 2.16193 3.29124 1.31802ZM6.64999 1.8C5.89413 1.8 5.16922 2.08446 4.63474 2.59081C4.10026 3.09716 3.8 3.78392 3.8 4.5C3.8 5.21608 4.10026 5.90284 4.63474 6.40919C5.16922 6.91554 5.89413 7.2 6.64999 7.2C7.40586 7.2 8.13077 6.91554 8.66525 6.40919C9.19973 5.90284 9.49999 5.21608 9.49999 4.5C9.49999 3.78392 9.19973 3.09716 8.66525 2.59081C8.13077 2.08446 7.40586 1.8 6.64999 1.8ZM12.3797 0.793769C12.5098 0.312246 13.0274 0.0218399 13.5356 0.145129C14.5574 0.392968 15.463 0.955918 16.1097 1.74523C16.7564 2.53454 17.1074 3.50531 17.1074 4.5045C17.1074 5.5037 16.7564 6.47447 16.1097 7.26378C15.463 8.05309 14.5574 8.61604 13.5356 8.86388C13.0274 8.98717 12.5098 8.69676 12.3797 8.21524C12.2495 7.73372 12.5561 7.24342 13.0644 7.12013C13.6774 6.97143 14.2208 6.63366 14.6088 6.16007C14.9968 5.68648 15.2074 5.10402 15.2074 4.5045C15.2074 3.90499 14.9968 3.32253 14.6088 2.84894C14.2208 2.37535 13.6774 2.03758 13.0644 1.88888C12.5561 1.76559 12.2495 1.27529 12.3797 0.793769ZM4.75 12.6C3.99413 12.6 3.26922 12.8845 2.73474 13.3908C2.20026 13.8972 1.9 14.5839 1.9 15.3V17.1C1.9 17.5971 1.47467 18 0.949999 18C0.425329 18 0 17.5971 0 17.1V15.3C0 14.1065 0.500444 12.9619 1.39124 12.118C2.28204 11.2741 3.49022 10.8 4.75 10.8H8.54999C9.80977 10.8 11.018 11.2741 11.9087 12.118C12.7995 12.9619 13.3 14.1065 13.3 15.3V17.1C13.3 17.5971 12.8747 18 12.35 18C11.8253 18 11.4 17.5971 11.4 17.1V15.3C11.4 14.5839 11.0997 13.8972 10.5652 13.3908C10.0308 12.8845 9.30586 12.6 8.54999 12.6H4.75ZM14.2802 11.61C14.4113 11.1287 14.9295 10.8393 15.4375 10.9636C16.4526 11.2119 17.3525 11.7713 17.9969 12.5548C18.6412 13.3382 18.9939 14.3016 19 15.2948L19 15.3L19 17.1C19 17.597 18.5747 18 18.05 18C17.5253 18 17.1 17.597 17.1 17.1V15.3027C17.0958 14.7076 16.8842 14.1306 16.4981 13.6611C16.1115 13.1911 15.5716 12.8554 14.9625 12.7064C14.4545 12.5822 14.149 12.0913 14.2802 11.61Z" fill="#737B8B"/>
</svg>
